# xmcd
#
# Track frame offsets: 
#        150
#        14246
#        28309
#        42861
#        56623
#        70396
#        83881
#        97118
#        111162
#        125086
#        138890
#        152641
#        166651
#        179722
#        192792
#        205924
#        219884
#        232751
#        246300
#        258940
#        273504
#        286464
#        299843
#        312458
#
# Disc length: 4333 seconds
#
# Revision: 0
# Processed by: cddbd v1.5.2PL0 Copyright (c) Steve Scherf et al.
# Submitted via: ExactAudioCopy v0.95b3
#
DISCID=7410eb18
DTITLE=Fiddlin' John Carson - Complete Recorded Works Vol. 7
DYEAR=1930
DGENRE=Folk
TTITLE0=Are You Going To Leave The Old Home - Moonshine Kate
TTITLE1=The Poor Girl Story - Moonshine Kate
TTITLE2=My Man's A Jolly Railroad Man - Moonshine Kate
TTITLE3=I Intend To Make Heaven My Home
TTITLE4=Papa's Billy Goat
TTITLE5=Mama's Nanny Goat
TTITLE6=I'm Glad My Wife's In Europe
TTITLE7=Be Kind To A Man When He's Down
TTITLE8=You'll Never Miss Your Mother Till She's Gone
TTITLE9=Since She Took My Licker From Me
TTITLE10=The New Comin' Round The Mountain
TTITLE11=When The Saints Go Marching In
TTITLE12=The Honest Farmer
TTITLE13=Taxes On The Farmer Feeds Them All
TTITLE14=Bear Me Away On Your Snowy White Wings
TTITLE15=I Want To Make Heaven My Home
TTITLE16=Going Where The Sugar Cane Grows
TTITLE17=The Storm That Struck Miami
TTITLE18=Georgia's Three-Dollar Tag
TTITLE19=I'm Old And Feeble
TTITLE20=Old And In The Way
TTITLE21=Stockade Blues
TTITLE22=Do You Ever Think Of Me?
TTITLE23=Ain't No Bugs On Me
EXTD=
EXTT0=
EXTT1=
EXTT2=
EXTT3=
EXTT4=
EXTT5=
EXTT6=
EXTT7=
EXTT8=
EXTT9=
EXTT10=
EXTT11=
EXTT12=
EXTT13=
EXTT14=
EXTT15=
EXTT16=
EXTT17=
EXTT18=
EXTT19=
EXTT20=
EXTT21=
EXTT22=
EXTT23=
PLAYORDER=
